<svg width="150" height="150" viewBox="0 0 150 150" fill="none" xmlns="http://www.w3.org/2000/svg">
<path d="M11.3882 43.7139H34.5614C35.7749 43.7139 36.7587 42.7304 36.7587 41.5166C36.7587 40.3028 35.7749 39.3193 34.5614 39.3193H11.3882C10.1747 39.3193 9.19092 40.3028 9.19092 41.5166C9.19092 42.7304 10.1744 43.7139 11.3882 43.7139Z" fill="#4285F4"/>
<path d="M33.7669 54.292H24.6128C23.3993 54.292 22.4155 55.2755 22.4155 56.4893C22.4155 57.703 23.3993 58.6865 24.6128 58.6865H33.7669C34.9804 58.6865 35.9642 57.703 35.9642 56.4893C35.9642 55.2755 34.9804 54.292 33.7669 54.292Z" fill="#4285F4"/>
<path d="M2.19727 69.5293H24.6129C25.8264 69.5293 26.8102 68.5458 26.8102 67.332C26.8102 66.1183 25.8264 65.1348 24.6129 65.1348H2.19727C0.983789 65.1348 0 66.1183 0 67.332C0 68.5458 0.983789 69.5293 2.19727 69.5293Z" fill="#4285F4"/>
<path d="M36.7587 108.483C36.7587 107.269 35.7749 106.286 34.5614 106.286H11.3882C10.1747 106.286 9.19092 107.269 9.19092 108.483C9.19092 109.697 10.1747 110.68 11.3882 110.68H34.5614C35.7749 110.68 36.7587 109.697 36.7587 108.483Z" fill="#4285F4"/>
<path d="M33.7669 91.313H24.6128C23.3993 91.313 22.4155 92.2965 22.4155 93.5103C22.4155 94.724 23.3993 95.7075 24.6128 95.7075H33.7669C34.9804 95.7075 35.9642 94.724 35.9642 93.5103C35.9642 92.2965 34.9804 91.313 33.7669 91.313Z" fill="#4285F4"/>
<path d="M26.8102 82.6675C26.8102 81.4537 25.8264 80.4702 24.6129 80.4702H2.19727C0.983789 80.4702 0 81.4537 0 82.6675C0 83.8813 0.983789 84.8647 2.19727 84.8647H24.6129C25.8264 84.8647 26.8102 83.8813 26.8102 82.6675Z" fill="#4285F4"/>
<path d="M93.6121 48.5829C94.8258 48.5829 95.8093 47.5994 95.8093 46.3856V43.0317C95.8093 41.818 94.8258 40.8345 93.6121 40.8345C92.3983 40.8345 91.4148 41.818 91.4148 43.0317V46.3856C91.4148 47.5994 92.3983 48.5829 93.6121 48.5829Z" fill="#4285F4"/>
<path d="M117.771 50.8411C116.912 49.9833 115.521 49.9833 114.663 50.8411L112.292 53.2127C111.433 54.0711 111.433 55.4621 112.292 56.3202C113.15 57.1783 114.541 57.178 115.399 56.3202L117.771 53.9486C118.628 53.0905 118.628 51.6995 117.771 50.8411Z" fill="#4285F4"/>
<path d="M122.226 72.8027C121.013 72.8027 120.029 73.7862 120.029 75C120.029 76.2138 121.013 77.1973 122.226 77.1973H125.58C126.794 77.1973 127.777 76.2138 127.777 75C127.777 73.7862 126.794 72.8027 125.58 72.8027H122.226Z" fill="#4285F4"/>
<path d="M115.399 93.679C114.541 92.8212 113.15 92.8212 112.292 93.679C111.433 94.5374 111.433 95.9284 112.292 96.7865L114.663 99.1581C115.522 100.016 116.913 100.016 117.771 99.1581C118.629 98.2997 118.629 96.9087 117.771 96.0506L115.399 93.679Z" fill="#4285F4"/>
<path d="M91.4148 103.614V106.968C91.4148 108.182 92.3983 109.165 93.6121 109.165C94.8258 109.165 95.8093 108.182 95.8093 106.968V103.614C95.8093 102.4 94.8258 101.417 93.6121 101.417C92.3983 101.417 91.4148 102.401 91.4148 103.614Z" fill="#4285F4"/>
<path d="M71.8247 93.679L69.4531 96.0506C68.595 96.909 68.595 98.3 69.4531 99.1581C70.3115 100.016 71.7026 100.016 72.5604 99.1581L74.932 96.7865C75.7901 95.9281 75.7901 94.5371 74.932 93.679C74.0741 92.8212 72.6828 92.8212 71.8247 93.679Z" fill="#4285F4"/>
<path d="M61.6438 72.8027C60.4303 72.8027 59.4465 73.7862 59.4465 75C59.4465 76.2138 60.4303 77.1973 61.6438 77.1973H64.9977C66.2112 77.1973 67.195 76.2138 67.195 75C67.195 73.7862 66.2112 72.8027 64.9977 72.8027H61.6438Z" fill="#4285F4"/>
<path d="M74.9322 53.2127L72.5606 50.8411C71.7025 49.9833 70.3112 49.9833 69.4534 50.8411C68.5953 51.6995 68.5953 53.0905 69.4534 53.9486L71.825 56.3202C72.6834 57.1783 74.0744 57.178 74.9322 56.3202C75.7903 55.4621 75.7903 54.0711 74.9322 53.2127Z" fill="#4285F4"/>
<path d="M105.427 74.9997C105.427 73.7859 104.444 72.8024 103.23 72.8024H95.8093V56.4888C95.8093 55.275 94.8258 54.2915 93.6121 54.2915C92.3983 54.2915 91.4148 55.275 91.4148 56.4888V74.9997C91.4148 76.2135 92.3983 77.197 93.6121 77.197H103.23C104.444 77.197 105.427 76.2135 105.427 74.9997Z" fill="#4285F4"/>
<path d="M135.276 74.6369C136.487 74.5634 137.409 73.5219 137.336 72.3107C135.938 49.2532 116.732 31.1914 93.6117 31.1914C69.4558 31.1914 49.8035 50.8438 49.8035 74.9999C49.8035 99.1558 69.4558 118.808 93.6117 118.808C115.253 118.808 133.719 102.952 136.932 81.5551C137.112 80.3551 136.285 79.2362 135.085 79.0561C133.888 78.8765 132.766 79.7023 132.586 80.9029C129.7 100.126 113.101 114.414 93.6117 114.414C71.879 114.414 54.198 96.7329 54.198 75.0002C54.198 53.2675 71.879 35.5862 93.6117 35.5862C114.413 35.5862 131.692 51.8346 132.949 72.5773C133.022 73.7879 134.063 74.7072 135.276 74.6369Z" fill="#4285F4"/>
<path d="M93.6117 18.6118C85.8829 18.6118 78.3105 20.2152 71.3408 23.2138H32.5725C31.359 23.2138 30.3752 24.1973 30.3752 25.411C30.3752 26.6248 31.359 27.6083 32.5725 27.6083H63.0744C58.9502 30.2626 55.1537 33.4642 51.8062 37.1603C50.9917 38.0594 51.0603 39.4489 51.9597 40.2637C52.8594 41.0784 54.2484 41.0096 55.0634 40.1102C64.9078 29.2404 78.9583 23.0063 93.6117 23.0063C122.281 23.0063 145.605 46.3305 145.605 74.9998C145.605 103.669 122.281 126.993 93.6117 126.993C64.9423 126.993 41.6182 103.669 41.6182 74.9998C41.6182 64.9604 44.4861 55.2162 49.9113 46.8203C50.5699 45.8011 50.2775 44.4411 49.2583 43.7825C48.239 43.1242 46.8791 43.416 46.2202 44.4355C40.3344 53.5434 37.2237 64.1122 37.2237 74.9998C37.2237 94.8531 47.5379 112.341 63.0884 122.391H32.5728C31.3593 122.391 30.3755 123.375 30.3755 124.589C30.3755 125.802 31.3593 126.786 32.5728 126.786H71.3106C78.1543 129.745 85.6945 131.388 93.612 131.388C124.704 131.388 150 106.092 150 74.9998C150 43.9073 124.704 18.6118 93.6117 18.6118Z" fill="#4285F4"/>
</svg>
