<svg width="140" height="134" viewBox="0 0 140 134" fill="none" xmlns="http://www.w3.org/2000/svg">
<path d="M135.898 112.9H85.887C84.3998 107.143 79.8582 102.601 74.1016 101.114V86.1489H110.8C126.901 86.1489 140 73.0502 140 56.9493C140 44.0401 131.438 32.6995 119.283 29.0059C115.609 14.2939 102.329 3.74223 86.9482 3.74223C80.9859 3.74223 75.2743 5.27977 70.2338 8.2173C64.8955 3.33535 57.8957 0.592773 50.5411 0.592773C34.7657 0.592773 21.872 13.1684 21.3574 28.8205C8.87195 32.3104 0 43.7423 0 56.9493C0 73.0502 13.0988 86.1489 29.1996 86.1489H65.8984V101.114C60.1418 102.602 55.6 107.143 54.113 112.9H4.10156C1.83641 112.9 0 114.736 0 117.001C0 119.267 1.83641 121.103 4.10156 121.103H54.113C55.939 128.171 62.3695 133.408 70 133.408C77.6305 133.408 84.0613 128.171 85.887 121.103H135.898C138.164 121.103 140 119.267 140 117.001C140 114.736 138.164 112.9 135.898 112.9ZM29.1996 77.9458C17.6222 77.9458 8.20312 68.527 8.20312 56.9493C8.20312 46.6016 15.916 37.6703 26.1434 36.1746C28.3016 35.8591 29.835 33.9095 29.6338 31.7379C29.5745 31.0972 29.5444 30.4426 29.5444 29.7921C29.5444 18.215 38.9635 8.79617 50.5408 8.79617C56.718 8.79617 62.5428 11.4813 66.5219 16.1631C67.9186 17.8068 70.3503 18.0873 72.085 16.8054C76.3867 13.6259 81.5262 11.9454 86.9479 11.9454C99.4249 11.9454 109.8 21.0998 111.739 33.0082C112.014 34.6921 113.302 36.0303 114.974 36.3688C124.722 38.3422 131.797 46.9973 131.797 56.9493C131.797 68.527 122.378 77.9458 110.8 77.9458H29.1996ZM70 125.204C65.4768 125.204 61.7969 121.524 61.7969 117.001C61.7969 112.478 65.4768 108.798 70 108.798C74.5232 108.798 78.2031 112.478 78.2031 117.001C78.2031 121.524 74.5232 125.204 70 125.204Z" fill="#45C0E7"/>
</svg>
