<svg width="150" height="78" viewBox="0 0 150 78" fill="none" xmlns="http://www.w3.org/2000/svg">
<path d="M111.112 0.111816C101.946 0.111816 91.3286 5.18897 78.6542 15.633C77.4524 16.6235 76.2308 17.6636 74.9997 18.7437C73.7689 17.6633 72.547 16.6235 71.3452 15.633C58.6711 5.18867 48.0542 0.111816 38.8881 0.111816C17.4451 0.111816 0 17.5572 0 39.0002C0 60.4432 17.4451 77.8883 38.8884 77.8883C48.0545 77.8883 58.6714 72.8111 71.3458 62.3671C72.5476 61.3765 73.7692 60.3365 75.0003 59.2563C76.2311 60.3368 77.453 61.3765 78.6548 62.3671C91.3292 72.8111 101.946 77.8883 111.112 77.8883C132.555 77.8886 150 60.4432 150 39.0002C150 17.5572 132.555 0.111816 111.112 0.111816ZM111.112 69.207C104.14 69.207 95.0777 64.6516 84.1755 55.6675C82.1651 54.011 60.1116 32.5364 58.3438 31.0848C46.4965 21.3553 40.7912 20.3047 38.8884 20.3047C28.5794 20.3047 20.1929 28.6912 20.1929 39.0002C20.1929 49.3092 28.5797 57.6957 38.8884 57.6957C40.805 57.6957 46.553 56.6325 58.5041 46.7841C59.2069 46.2049 59.9203 45.6005 60.6378 44.9832L68.7167 53.2159C67.7426 54.0626 66.7761 54.8835 65.8248 55.6675C54.9223 64.6514 45.8596 69.207 38.8884 69.207C22.2322 69.207 8.68154 55.6563 8.68154 39.0002C8.68154 22.344 22.2322 8.79307 38.8884 8.79307C45.8596 8.79307 54.9223 13.3484 65.8245 22.3329C67.8349 23.9893 86.228 42.2102 86.228 42.2102C88.0049 43.8286 89.7771 45.3676 91.4959 46.7841C103.447 56.6325 109.195 57.6957 111.112 57.6957C121.421 57.6957 129.807 49.3092 129.807 39.0002C129.807 28.6912 121.421 20.3047 111.112 20.3047C109.209 20.3047 103.504 21.355 91.6562 31.0848C90.9012 31.7047 90.1342 32.3533 89.3616 33.0184L81.2833 24.7848C82.2574 23.9381 83.2239 23.1172 84.1755 22.3329C95.078 13.3487 104.141 8.79307 111.112 8.79307C127.768 8.79307 141.319 22.3437 141.319 39.0002C141.319 55.6563 127.768 69.207 111.112 69.207ZM54.2795 39.0002C53.8441 39.3696 53.4117 39.7311 52.9831 40.0842C43.633 47.7892 39.3059 48.8896 38.6991 49.0124C33.264 48.9116 28.8738 44.4588 28.8738 38.9999C28.8738 33.541 33.264 29.0885 38.6991 28.9874C39.3035 29.1099 43.5882 30.2 52.834 37.7932C53.3112 38.1857 53.7935 38.588 54.2795 39.0002ZM95.7205 39.0002C96.2066 38.5883 96.6888 38.1854 97.1657 37.7934C106.412 30.2003 110.696 29.1102 111.301 28.9877C116.736 29.0885 121.126 33.5416 121.126 39.0002C121.126 44.4588 116.736 48.9116 111.301 49.0127C110.694 48.8896 106.367 47.7892 97.0169 40.0845C96.5883 39.7314 96.1559 39.3696 95.7205 39.0002Z" fill="#ED6357"/>
</svg>
