<svg width="150" height="150" viewBox="0 0 150 150" fill="none" xmlns="http://www.w3.org/2000/svg">
<path d="M126.27 119.86C125.137 119.86 124.219 118.942 124.219 117.809V106.045C124.219 105.561 123.824 105.167 123.34 105.167H26.6602C26.1756 105.167 25.7812 105.561 25.7812 106.045V117.809C25.7812 118.942 24.8631 119.86 23.7305 119.86C22.5979 119.86 21.6797 118.942 21.6797 117.809V106.045C21.6797 103.299 23.9139 101.065 26.6602 101.065H123.34C126.086 101.065 128.32 103.299 128.32 106.045V117.809C128.32 118.942 127.402 119.86 126.27 119.86Z" fill="white"/>
<path d="M123.34 101.065H77.0508V74.6284C77.0508 73.4958 76.1326 72.5776 75 72.5776C73.8674 72.5776 72.9492 73.4958 72.9492 74.6284V101.065H26.6602C23.9139 101.065 21.6797 103.299 21.6797 106.045V117.809C21.6797 118.942 22.5979 119.86 23.7305 119.86C24.8631 119.86 25.7812 118.942 25.7812 117.809V106.045C25.7812 105.561 26.1756 105.166 26.6602 105.166H72.9492V117.809C72.9492 118.942 73.8674 119.86 75 119.86C76.1326 119.86 77.0508 118.942 77.0508 117.809V105.166H123.34C123.824 105.166 124.219 105.561 124.219 106.045V117.809C124.219 118.942 125.137 119.86 126.27 119.86C127.402 119.86 128.32 118.942 128.32 117.809V106.045C128.32 103.299 126.086 101.065 123.34 101.065Z" fill="#FCD463"/>
<path d="M74.9943 62.7377C83.8812 62.7377 91.0853 55.5335 91.0853 46.6467C91.0853 37.7599 83.8812 30.5557 74.9943 30.5557C66.1075 30.5557 58.9033 37.7599 58.9033 46.6467C58.9033 55.5335 66.1075 62.7377 74.9943 62.7377Z" fill="white"/>
<path d="M68.9668 40.0616V53.2318C68.9668 54.4734 70.3139 55.2474 71.3867 54.6216L82.6754 48.0368C83.74 47.4157 83.74 45.8777 82.6754 45.2572L71.3867 38.6718C70.3139 38.046 68.9668 38.82 68.9668 40.0616Z" fill="#FBBC05"/>
<path d="M93.7211 15.306L88.6627 20.3919C87.0883 19.5733 85.4324 18.8942 83.7338 18.3722L83.7145 11.1927C83.7121 10.2259 83.333 9.3171 82.6475 8.63507C81.9619 7.95304 81.0514 7.57921 80.0846 7.58155L69.6959 7.60909C68.7291 7.61144 67.8203 7.99112 67.1383 8.67667C66.4569 9.36222 66.0824 10.2722 66.0848 11.2396L66.1041 18.4191C64.4078 18.9505 62.7555 19.6384 61.1858 20.4651L56.0998 15.4067C54.6842 13.9987 52.3879 14.0052 50.9799 15.4202L43.6533 22.7855C42.2453 24.2011 42.2518 26.4974 43.6668 27.9054L48.7527 32.9638C47.9342 34.5376 47.2557 36.1935 46.733 37.8927L39.5535 37.9114C38.5867 37.9138 37.6779 38.2935 36.9965 38.9784C36.3145 39.664 35.94 40.5745 35.9424 41.5413L35.9699 51.93C35.9729 52.8968 36.3514 53.8056 37.0369 54.4876C37.7225 55.1696 38.633 55.5435 39.5998 55.5411L46.7793 55.5224C47.3108 57.2181 47.9986 58.8704 48.8254 60.4401L43.767 65.5261C42.359 66.9417 42.3654 69.238 43.7805 70.646L51.1463 77.9726C52.5613 79.3806 54.8582 79.3741 56.2662 77.9591L61.3246 72.8732C62.899 73.6917 64.5549 74.3708 66.2535 74.8929L66.2729 82.0724C66.2752 83.0392 66.6543 83.948 67.3399 84.63C68.0254 85.312 68.936 85.6859 69.9028 85.6835L80.292 85.656C81.2588 85.6536 82.1676 85.2739 82.8496 84.5884C83.5311 83.9028 83.9055 82.9929 83.9032 82.0255L83.8838 74.846C85.5801 74.3146 87.2324 73.6267 88.8022 72.7999L93.8881 77.8583C95.3031 79.2663 97.6 79.2605 99.008 77.8448L106.335 70.479C107.743 69.0634 107.736 66.7665 106.321 65.3591L101.235 60.3007C102.054 58.7269 102.732 57.071 103.255 55.3718L110.434 55.353C111.401 55.3507 112.31 54.971 112.991 54.286C113.673 53.6005 114.048 52.69 114.046 51.7232L114.017 41.3345C114.015 40.3677 113.636 39.4589 112.95 38.7769C112.265 38.0948 111.354 37.721 110.388 37.7234L103.208 37.7421C102.677 36.0464 101.989 34.3941 101.162 32.8243L106.22 27.7384C107.628 26.3228 107.622 24.0259 106.207 22.6185L98.8416 15.2919C97.426 13.8839 95.1291 13.8903 93.7211 15.306ZM87.2541 34.3073C94.0504 41.0673 94.0797 52.0964 87.3197 58.8927C80.5598 65.689 69.5307 65.7183 62.7344 58.9583C55.9381 52.1984 55.9088 41.1693 62.6688 34.373C69.4287 27.5767 80.4578 27.5474 87.2541 34.3073Z" fill="#FBBC05"/>
<path d="M69.8932 86.8552C68.6188 86.8552 67.4193 86.3607 66.5147 85.4613C65.607 84.5584 65.1061 83.3566 65.102 82.0763L65.0856 75.747C63.8832 75.3398 62.7031 74.8558 61.5588 74.3021L57.0981 78.7863C56.1969 79.6928 54.9945 80.1937 53.7137 80.1972C53.709 80.1972 53.7043 80.1972 53.7008 80.1972C52.424 80.1972 51.2246 79.7027 50.3211 78.8045L42.9559 71.4779C42.0488 70.5761 41.5479 69.3744 41.5443 68.0929C41.5408 66.8115 42.0359 65.6068 42.9377 64.7004L47.3979 60.2162C46.8377 59.0748 46.3473 57.8965 45.9336 56.6976L39.6043 56.714C39.6002 56.714 39.5955 56.714 39.5914 56.714C38.3158 56.714 37.1164 56.2189 36.2117 55.3195C35.3041 54.4166 34.8026 53.2148 34.7996 51.934L34.7715 41.5459C34.7686 40.2656 35.2643 39.0609 36.1666 38.1533C37.069 37.2457 38.2713 36.7441 39.551 36.7406L45.8803 36.7242C46.2881 35.5201 46.7721 34.3394 47.3258 33.1975L42.8416 28.7373C40.9684 26.8734 40.9602 23.833 42.824 21.9598L50.1506 14.5939C51.0518 13.6875 52.2541 13.1865 53.535 13.183H53.5479C54.8246 13.183 56.024 13.6775 56.927 14.5758L61.4111 19.0359C62.5508 18.4764 63.7291 17.9859 64.9303 17.5717L64.9139 11.243C64.9098 9.96269 65.4055 8.75801 66.309 7.85039C67.2113 6.94277 68.4137 6.44121 69.6934 6.4377L80.082 6.41016H80.0949C81.3705 6.41016 82.5699 6.90527 83.4746 7.80469C84.3822 8.70762 84.8838 9.90996 84.8867 11.1902L84.9037 17.5189C86.1066 17.9268 87.2867 18.4107 88.4305 18.9645L92.8906 14.4803C93.7924 13.5738 94.9947 13.0728 96.2756 13.0693H96.2885C97.5652 13.0693 98.7647 13.5639 99.6676 14.4621L107.033 21.7887C108.907 23.6525 108.915 26.693 107.052 28.5656L102.591 33.0504C103.151 34.1906 103.641 35.3689 104.055 36.5689L110.385 36.5525H110.399C111.674 36.5525 112.873 37.0471 113.778 37.9465C114.685 38.8494 115.186 40.0512 115.19 41.3314L115.217 51.7207C115.221 53.0004 114.726 54.2056 113.823 55.1133C112.92 56.0209 111.718 56.5224 110.438 56.526L104.108 56.5424C103.701 57.7465 103.217 58.9271 102.663 60.0697L107.147 64.5299C108.054 65.4316 108.555 66.6334 108.559 67.9142C108.562 69.1957 108.067 70.4004 107.165 71.3074L99.8387 78.6732C97.9748 80.5465 94.935 80.5541 93.0617 78.6914L88.5775 74.2306C87.4379 74.7902 86.2602 75.2806 85.0584 75.6949L85.0754 82.0242C85.0795 83.3039 84.5838 84.5086 83.6809 85.4162C82.7779 86.3238 81.5756 86.826 80.2959 86.8295L69.9072 86.857C69.9031 86.8552 69.8979 86.8552 69.8932 86.8552ZM61.3268 71.7023C61.5102 71.7023 61.6959 71.7457 61.867 71.8347C63.3805 72.6217 64.9731 73.2738 66.5996 73.7742C67.09 73.9248 67.4258 74.3777 67.427 74.891L67.4457 82.0705C67.4475 82.725 67.7035 83.339 68.1676 83.8002C68.6293 84.2595 69.2422 84.5121 69.8932 84.5121H69.9008L80.29 84.4845C80.9434 84.4828 81.558 84.2267 82.0191 83.7627C82.4803 83.2986 82.7334 82.6834 82.7317 82.0295L82.7123 74.85C82.7111 74.3367 83.0434 73.882 83.5332 73.7285C85.1604 73.2187 86.7494 72.5578 88.2559 71.7638C88.7094 71.5248 89.266 71.608 89.6287 71.9701L94.7147 77.0285C95.6732 77.9806 97.226 77.9765 98.1775 77.0191L105.504 69.6533C105.964 69.1904 106.217 68.5752 106.215 67.9201C106.214 67.265 105.958 66.6504 105.495 66.191L100.409 61.132C100.046 60.7705 99.9594 60.215 100.196 59.7603C100.981 58.251 101.633 56.6584 102.136 55.0271C102.287 54.5367 102.74 54.2015 103.253 54.1998L110.432 54.181C111.086 54.1793 111.7 53.9232 112.162 53.4598C112.623 52.9957 112.876 52.3805 112.874 51.7265L112.846 41.3373C112.845 40.6828 112.589 40.0687 112.125 39.6076C111.663 39.1482 111.051 38.8957 110.4 38.8957C110.397 38.8957 110.394 38.8957 110.392 38.8957L103.212 38.9144C103.211 38.9144 103.21 38.9144 103.209 38.9144C102.697 38.9144 102.245 38.5822 102.091 38.093C101.582 36.4682 100.92 34.8791 100.126 33.3703C99.8873 32.9174 99.9705 32.3613 100.332 31.998L105.391 26.9121C106.343 25.9553 106.338 24.4014 105.382 23.4492L98.0158 16.1227C97.5547 15.6639 96.9418 15.4119 96.2897 15.4119C96.2873 15.4119 96.285 15.4119 96.2826 15.4119C95.6275 15.4137 95.0129 15.6691 94.5529 16.132L89.4945 21.218C89.1336 21.5812 88.5787 21.668 88.1229 21.4312C86.6105 20.6449 85.018 19.9928 83.3902 19.4918C82.8992 19.3406 82.5641 18.8883 82.5629 18.375L82.5436 11.1961C82.5418 10.5416 82.2858 9.92754 81.8223 9.46641C81.36 9.00703 80.7471 8.75391 80.0955 8.75391C80.0932 8.75391 80.0908 8.75391 80.0885 8.75391L69.6998 8.78145C69.0465 8.7832 68.4324 9.03984 67.9707 9.50332C67.5096 9.96738 67.2565 10.582 67.2582 11.2365L67.277 18.416C67.2781 18.9293 66.9459 19.384 66.4561 19.5375C64.8295 20.0473 63.241 20.7082 61.7334 21.5021C61.2793 21.7412 60.7233 21.658 60.3606 21.2959L55.2746 16.2375C54.8135 15.7787 54.2006 15.5268 53.5485 15.5268C53.5461 15.5268 53.5438 15.5268 53.5414 15.5268C52.8863 15.5285 52.2723 15.784 51.8123 16.2469L44.4852 23.6121C43.533 24.5689 43.5371 26.1228 44.494 27.075L49.5799 32.1334C49.9432 32.4949 50.0299 33.0504 49.7932 33.5051C49.008 35.015 48.3553 36.607 47.8531 38.2383C47.7026 38.7287 47.2496 39.0639 46.7363 39.0656L39.5569 39.0838C38.9035 39.0855 38.2895 39.3416 37.8283 39.8051C37.3672 40.2691 37.1135 40.8849 37.1152 41.5389L37.1434 51.9269C37.1451 52.5814 37.4006 53.1955 37.8647 53.6566C38.327 54.1166 38.9399 54.3691 39.5914 54.3691H39.5985L46.7779 54.3504H46.7809C47.293 54.3504 47.7459 54.6832 47.8988 55.1719C48.4074 56.7949 49.0684 58.3834 49.8641 59.8939C50.1026 60.3474 50.0199 60.9035 49.6578 61.2668L44.5988 66.3527C44.1389 66.8156 43.8858 67.4308 43.8875 68.0859C43.8893 68.741 44.1453 69.3551 44.6076 69.8156L51.9729 77.1422C52.4358 77.6027 53.0317 77.85 53.7067 77.8529C54.3617 77.8512 54.9758 77.5957 55.4358 77.1328L60.4947 72.0469C60.7209 71.8207 61.0221 71.7023 61.3268 71.7023Z" fill="#FBBC05"/>
<path d="M74.9919 70.7933C68.5536 70.7933 62.5032 68.3007 57.9482 63.7703C48.4987 54.3707 48.4571 39.0361 57.8568 29.5861C67.2558 20.1367 82.5915 20.0968 92.0409 29.4953C96.6118 34.0416 99.1384 40.1048 99.156 46.5683C99.173 53.0318 96.6786 59.1086 92.1323 63.6794C87.5861 68.2498 81.5234 70.7769 75.0593 70.7939C75.037 70.7933 75.0142 70.7933 74.9919 70.7933ZM74.9948 24.8148C69.3857 24.8148 63.7771 26.957 59.5185 31.239C55.4134 35.3658 53.1616 40.8531 53.1775 46.6908C53.1927 52.5279 55.4743 58.0035 59.6011 62.1086C63.7138 66.199 69.1782 68.4496 74.9931 68.4496H75.0534C80.8911 68.4343 86.3661 66.1527 90.4712 62.0259C94.5763 57.8992 96.8286 52.4119 96.8128 46.5742C96.7976 40.7371 94.5159 35.2615 90.3892 31.1564C86.1365 26.9277 80.5648 24.8148 74.9948 24.8148Z" fill="#FBBC05"/>
<path d="M58.6885 30.4131C49.7447 39.4049 49.7834 53.9954 58.7746 62.9391C67.7664 71.8829 82.3574 71.8442 91.3012 62.8524C100.245 53.8606 100.206 39.2696 91.2144 30.3258C82.2232 21.3821 67.6322 21.4213 58.6885 30.4131ZM86.3342 57.9118C80.115 64.1643 69.9684 64.1913 63.7152 57.9721C57.4627 51.753 57.4357 41.6063 63.6549 35.3537C69.874 29.1012 80.0207 29.0743 86.2732 35.2934C92.5264 41.5125 92.5539 51.6592 86.3342 57.9118Z" fill="#FCD463"/>
<path d="M74.9925 70.7936C68.5536 70.7936 62.5032 68.301 57.9481 63.77C53.3772 59.2237 50.8507 53.1604 50.8331 46.6969C50.8161 40.234 53.3104 34.1573 57.8567 29.5864C67.2558 20.1376 82.5903 20.096 92.0397 29.495C101.49 38.894 101.53 54.2286 92.1312 63.6786C87.5849 68.2495 81.5216 70.776 75.0581 70.7936C75.037 70.7936 75.0142 70.7936 74.9925 70.7936ZM74.9954 24.8151C69.3862 24.8151 63.7776 26.9579 59.519 31.2393C55.414 35.3661 53.1616 40.8534 53.1774 46.6911C53.1927 52.5282 55.4743 58.0038 59.6011 62.1083C63.7138 66.1987 69.1782 68.4499 74.9931 68.4499H75.0534C80.8905 68.4346 86.3661 66.153 90.4712 62.0262C98.9591 53.4926 98.9222 39.6446 90.3886 31.1567C86.1364 26.928 80.5653 24.8151 74.9954 24.8151ZM58.6882 30.4131H58.694H58.6882ZM74.9942 63.7899C70.6132 63.7899 66.2327 62.1288 62.8888 58.8024C56.178 52.1274 56.1493 41.2372 62.8243 34.5264C69.5005 27.8163 80.3901 27.7876 87.1003 34.462C90.3464 37.6905 92.1411 41.9965 92.1528 46.5862C92.1651 51.1764 90.3938 55.4919 87.1653 58.7379C83.8161 62.1047 79.4052 63.7899 74.9942 63.7899ZM74.9948 31.8176C71.1856 31.8176 67.3776 33.2725 64.4854 36.1799C58.7222 41.9743 58.7468 51.3774 64.5411 57.1407C70.3366 62.904 79.7392 62.8793 85.503 57.085C88.2903 54.2831 89.819 50.5571 89.8091 46.5932C89.798 42.6294 88.2493 38.911 85.4474 36.1237C82.5599 33.252 78.777 31.8176 74.9948 31.8176ZM86.3345 57.9118H86.3403H86.3345Z" fill="#FBBC05"/>
<path d="M75.0006 110.666C79.1705 110.666 82.551 107.286 82.551 103.116C82.551 98.9458 79.1705 95.5654 75.0006 95.5654C70.8306 95.5654 67.4502 98.9458 67.4502 103.116C67.4502 107.286 70.8306 110.666 75.0006 110.666Z" fill="#FBBC05"/>
<path d="M34.2773 142.418H13.1836C10.9184 142.418 9.08203 140.582 9.08203 138.317V121.911C9.08203 119.645 10.9184 117.809 13.1836 117.809H34.2773C36.5426 117.809 38.3789 119.645 38.3789 121.911V138.317C38.3789 140.582 36.5426 142.418 34.2773 142.418Z" fill="#FBBC05"/>
<path d="M85.5899 142.418H64.4961C62.2309 142.418 60.3945 140.582 60.3945 138.317V121.911C60.3945 119.645 62.2309 117.809 64.4961 117.809H85.5899C87.8551 117.809 89.6914 119.645 89.6914 121.911V138.317C89.6914 140.582 87.8551 142.418 85.5899 142.418Z" fill="#FBBC05"/>
<path d="M136.816 142.418H115.723C113.457 142.418 111.621 140.582 111.621 138.317V121.911C111.621 119.645 113.457 117.809 115.723 117.809H136.816C139.082 117.809 140.918 119.645 140.918 121.911V138.317C140.918 140.582 139.082 142.418 136.816 142.418Z" fill="#FBBC05"/>
<path d="M16.4766 123.529V136.699C16.4766 137.941 17.8236 138.715 18.8965 138.089L30.1852 131.504C31.2498 130.883 31.2498 129.345 30.1852 128.725L18.8965 122.14C17.8236 121.514 16.4766 122.287 16.4766 123.529Z" fill="white"/>
<path d="M67.7412 123.529V136.699C67.7412 137.941 69.0883 138.715 70.1611 138.089L81.4498 131.504C82.5145 130.883 82.5145 129.345 81.4498 128.725L70.1611 122.14C69.0883 121.514 67.7412 122.287 67.7412 123.529Z" fill="white"/>
<path d="M119.016 123.529V136.699C119.016 137.941 120.363 138.715 121.436 138.089L132.724 131.504C133.789 130.883 133.789 129.345 132.724 128.725L121.436 122.14C120.363 121.514 119.016 122.287 119.016 123.529Z" fill="white"/>
<path d="M75.0002 111.839C70.1902 111.839 66.2773 107.926 66.2773 103.116C66.2773 98.3069 70.1902 94.394 75.0002 94.394C79.8102 94.394 83.7231 98.3069 83.7231 103.116C83.7231 107.926 79.8102 111.839 75.0002 111.839ZM75.0002 96.7372C71.4828 96.7372 68.6211 99.5983 68.6211 103.116C68.6211 106.633 71.4828 109.494 75.0002 109.494C78.5176 109.494 81.3793 106.633 81.3793 103.116C81.3793 99.5983 78.5176 96.7372 75.0002 96.7372Z" fill="#FBBC05"/>
</svg>
