<svg width="130" height="130" viewBox="0 0 130 130" fill="none" xmlns="http://www.w3.org/2000/svg">
<g clip-path="url(#clip0)">
<path d="M120.222 35.2718L120.218 35.1706C120.161 33.9219 120.123 32.6008 120.101 31.131C119.994 23.9631 114.296 18.034 107.128 17.6333C92.1808 16.7992 80.6182 11.9254 70.7387 2.29582L70.6544 2.21548C67.432 -0.739145 62.5711 -0.739145 59.3477 2.21548L59.2634 2.29582C49.3839 11.9254 37.8212 16.7992 22.8745 17.6343C15.7067 18.034 10.0077 23.9631 9.90155 31.132C9.87973 32.5919 9.84105 33.913 9.78451 35.1706L9.77856 35.4057C9.48796 50.647 9.12694 69.6155 15.4726 86.8325C18.9618 96.3004 24.2462 104.53 31.178 111.296C39.0729 119 49.4136 125.117 61.9125 129.475C62.3192 129.617 62.7417 129.732 63.1721 129.818C63.7791 129.939 64.3901 129.999 65.001 129.999C65.612 129.999 66.2239 129.939 66.8299 129.818C67.2604 129.732 67.6859 129.616 68.0945 129.473C80.5785 125.107 90.9083 118.987 98.7963 111.284C105.725 104.517 111.01 96.2845 114.502 86.8146C120.871 69.5461 120.511 50.5418 120.222 35.2718ZM107.345 84.1754C100.652 102.322 86.9896 114.784 65.5773 122.272C65.5009 122.298 65.4196 122.321 65.3353 122.338C65.1141 122.381 64.889 122.381 64.6648 122.337C64.5815 122.32 64.5002 122.298 64.4248 122.272C42.9896 114.798 29.3184 102.343 22.6305 84.1952C16.7818 68.3251 17.1131 50.9128 17.4056 35.5515L17.4076 35.4662C17.4671 34.1461 17.5068 32.7635 17.5286 31.244C17.5762 28.0613 20.1113 25.428 23.3 25.2505C31.7583 24.7784 39.189 23.1438 46.0166 20.2537C52.8354 17.3675 58.8914 13.2991 64.5289 7.81628C64.8156 7.57428 65.1875 7.57329 65.4731 7.81628C71.1116 13.2991 77.1677 17.3675 83.9854 20.2537C90.8131 23.1438 98.2438 24.7784 106.703 25.2505C109.892 25.428 112.427 28.0613 112.473 31.245C112.496 32.7724 112.536 34.155 112.595 35.4662C112.887 50.8453 113.21 68.2716 107.345 84.1754Z" fill="#34A853"/>
<path d="M64.9992 32.604C47.1345 32.604 32.6013 47.1382 32.6013 65.0018C32.6013 82.8665 47.1345 97.4007 64.9992 97.4007C82.8629 97.4007 97.397 82.8665 97.397 65.0018C97.397 47.1382 82.8629 32.604 64.9992 32.604ZM64.9992 89.7716C51.3408 89.7716 40.2294 78.6602 40.2294 65.0018C40.2294 51.3435 51.3408 40.2321 64.9992 40.2321C78.6565 40.2321 89.7679 51.3435 89.7679 65.0018C89.7679 78.6602 78.6565 89.7716 64.9992 89.7716Z" fill="#34A853"/>
<path d="M74.3105 54.9437L59.2626 69.9916L55.1783 65.9073C53.6886 64.4176 51.2735 64.4176 49.7838 65.9073C48.2951 67.397 48.2951 69.8121 49.7838 71.3008L56.5659 78.0829C57.3107 78.8278 58.2867 79.1997 59.2626 79.1997C60.2386 79.1997 61.2145 78.8278 61.9594 78.0829L79.705 60.3372C81.1938 58.8475 81.1938 56.4324 79.705 54.9437C78.2153 53.453 75.8002 53.453 74.3105 54.9437Z" fill="#34A853"/>
</g>
<defs>
<clipPath id="clip0">
<rect width="130" height="130" fill="white"/>
</clipPath>
</defs>
</svg>
