<svg width="130" height="130" viewBox="0 0 130 130" fill="none" xmlns="http://www.w3.org/2000/svg">
<path d="M118.545 14.5347H46.5525C45.344 14.5347 44.1992 13.9546 43.4844 12.9813L37.7093 4.7625C37.6984 4.74702 37.6875 4.73179 37.6763 4.71657C35.5338 1.76142 32.08 0 28.4313 0C28.4203 0 28.4092 0 28.3985 0L11.4223 0.0479625C11.4221 0.0479625 11.4221 0.0479625 11.4221 0.0479625C5.14329 0.0659802 0.0351562 5.18883 0.0351562 11.4676V118.58C0.0351562 124.877 5.15801 130 11.4548 130H118.546C124.843 130 129.965 124.877 129.965 118.58V25.9543C129.965 19.6575 124.843 14.5347 118.545 14.5347ZM16.53 67.3188H7.648V56.6605H16.53V67.3188ZM16.53 74.9319V85.5903H7.648V74.9319H16.53ZM16.53 49.0474H7.648V38.389H16.53V49.0474ZM7.648 93.2034H16.53V103.862H7.648V93.2034ZM24.143 38.389H105.857V122.387H24.143V38.389ZM122.352 38.389V49.0474H113.47V38.389H122.352ZM113.47 74.9319H122.352V85.5903H113.47V74.9319ZM113.47 67.3188V56.6605H122.352V67.3188H113.47ZM113.47 93.2034H122.352V103.862H113.47V93.2034ZM11.4436 7.66106L28.4201 7.6131H28.431C29.6397 7.6131 30.784 8.19271 31.4993 9.16668L37.2741 17.3853C37.285 17.4005 37.2959 17.4157 37.3069 17.431C39.4482 20.3846 42.9045 22.148 46.5527 22.148H118.546C120.645 22.148 122.352 23.8556 122.352 25.9546V30.7762H7.64826V11.4676C7.648 9.37452 9.3508 7.6669 11.4436 7.66106ZM7.648 118.58V111.475H16.53V122.387H11.4546C9.35562 122.387 7.648 120.679 7.648 118.58ZM118.545 122.387H113.47V111.475H122.352V118.58C122.352 120.679 120.645 122.387 118.545 122.387Z" fill="#ED67B2"/>
<path d="M82.9136 75.1332L60.9566 59.9451C58.6212 58.3293 55.6072 58.1441 53.091 59.4632C50.5754 60.782 49.0127 63.3657 49.0127 66.2061V96.3968C49.0127 99.2282 50.5681 101.808 53.072 103.13C54.1916 103.721 55.4118 104.013 56.6278 104.013C58.1314 104.013 59.6284 103.566 60.9206 102.683L82.8778 87.6801C84.9481 86.2653 86.1887 83.9235 86.1958 81.416C86.203 78.9085 84.976 76.5597 82.9136 75.1332ZM56.6255 96.3951L56.6271 66.2071L78.5827 81.3942L56.6255 96.3951Z" fill="#ED67B2"/>
</svg>
